# xmcd
#
# Track frame offsets:
#	150
#	19342
#	31759
#	48740
#	61785
#	74182
#	92291
#	109243
#	125232
#	139345
#
# Disc length: 2062 seconds
#
# Revision: 1
# Processed by: cddbd v1.5.2PL0 Copyright (c) Steve Scherf et al.
# Submitted via: audiograbber 1.83.01
#
DISCID=94080c0a
DTITLE=Dark One Lite - Guitar Tribute to 3 Doors Down
DYEAR=2005
DGENRE=Country
TTITLE0=Kryptonite
TTITLE1=My World
TTITLE2=Landing in London
TTITLE3=It's not me
TTITLE4=Loser
TTITLE5=When I'm gone
TTITLE6=Here without You
TTITLE7=Away from the Sun
TTITLE8=Let me Go
TTITLE9=Duck and Run
EXTD=
EXTT0=
EXTT1=
EXTT2=
EXTT3=
EXTT4=
EXTT5=
EXTT6=
EXTT7=
EXTT8=
EXTT9=
PLAYORDER=
